<svg width="4" height="12" viewBox="0 0 4 12" fill="none" xmlns="http://www.w3.org/2000/svg">
<path d="M2 4.4375C1.26172 4.4375 0.6875 5.03906 0.6875 5.75C0.6875 6.48828 1.26172 7.0625 2 7.0625C2.71094 7.0625 3.3125 6.48828 3.3125 5.75C3.3125 5.03906 2.71094 4.4375 2 4.4375ZM0.6875 1.59375C0.6875 2.33203 1.26172 2.90625 2 2.90625C2.71094 2.90625 3.3125 2.33203 3.3125 1.59375C3.3125 0.882812 2.71094 0.28125 2 0.28125C1.26172 0.28125 0.6875 0.882812 0.6875 1.59375ZM0.6875 9.90625C0.6875 10.6445 1.26172 11.2188 2 11.2188C2.71094 11.2188 3.3125 10.6445 3.3125 9.90625C3.3125 9.19531 2.71094 8.59375 2 8.59375C1.26172 8.59375 0.6875 9.19531 0.6875 9.90625Z" fill="#828282"/>
</svg>
