<svg width="32" height="32" viewBox="0 0 32 32" fill="none" xmlns="http://www.w3.org/2000/svg">
<circle cx="16" cy="16.0002" r="16" fill="#5B86E5"/>
<path d="M12.3882 23.8892V10.7983H17.2973C18.303 10.7983 19.1467 10.9858 19.8285 11.3608C20.5146 11.7358 21.0324 12.2514 21.3818 12.9076C21.7355 13.5596 21.9123 14.3011 21.9123 15.1321C21.9123 15.9715 21.7355 16.7173 21.3818 17.3693C21.0281 18.0213 20.5061 18.5348 19.8158 18.9098C19.1254 19.2805 18.2753 19.4659 17.2653 19.4659H14.0118V17.5163H16.9457C17.5338 17.5163 18.0153 17.414 18.3903 17.2095C18.7653 17.0049 19.0423 16.7237 19.2213 16.3657C19.4045 16.0078 19.4962 15.5965 19.4962 15.1321C19.4962 14.6676 19.4045 14.2585 19.2213 13.9048C19.0423 13.5511 18.7632 13.2762 18.3839 13.0802C18.0089 12.8799 17.5253 12.7798 16.9329 12.7798H14.7596V23.8892H12.3882Z" fill="white"/>
</svg>
