<svg width="20" height="20" viewBox="0 0 20 20" fill="none" xmlns="http://www.w3.org/2000/svg">
<path d="M8.0023 11.3533H12.0161C12.3843 11.3533 12.6789 11.0587 12.6789 10.6904C12.6789 10.3222 12.3843 10.0276 12.0161 10.0276H8.0023C7.63406 10.0276 7.33947 10.3222 7.33947 10.6904C7.33947 11.0587 7.63406 11.3533 8.0023 11.3533Z" fill="#828282"/>
<path d="M14.6858 2H5.33257C3.49137 2 2 3.49137 2 5.33257V5.9954C2 6.56617 2.23936 7.10011 2.66283 7.48677V14.6674C2.66283 16.5086 4.1542 18 5.9954 18H14.0046C15.8458 18 17.3372 16.5086 17.3372 14.6674V7.48677C17.7606 7.10011 18 6.56617 18 5.9954V5.33257C18.0184 3.49137 16.527 2 14.6858 2ZM3.34407 5.33257C3.34407 4.22785 4.24626 3.32566 5.35098 3.32566H14.7043C15.809 3.32566 16.7112 4.22785 16.7112 5.33257V5.9954C16.7112 6.36364 16.4166 6.65823 16.0483 6.65823H4.0069C3.63867 6.65823 3.34407 6.36364 3.34407 5.9954V5.33257ZM16.0115 14.6858C16.0115 15.7906 15.1093 16.6928 14.0046 16.6928H6.01381C4.90909 16.6928 4.0069 15.7906 4.0069 14.6858V8.0023H16.0299V14.6858H16.0115Z" fill="#828282"/>
</svg>
