<svg width="21" height="18" viewBox="0 0 21 18" fill="none" xmlns="http://www.w3.org/2000/svg">
<path d="M20.4375 2.81274C20.7188 2.81274 21 2.57837 21 2.25024V0.750244C21 0.468994 20.7188 0.187744 20.4375 0.187744H0.5625C0.234375 0.187744 0 0.468994 0 0.750244V2.25024C0 2.57837 0.234375 2.81274 0.5625 2.81274H20.4375ZM20.4375 10.3127C20.7188 10.3127 21 10.0784 21 9.75024V8.25024C21 7.96899 20.7188 7.68774 20.4375 7.68774H0.5625C0.234375 7.68774 0 7.96899 0 8.25024V9.75024C0 10.0784 0.234375 10.3127 0.5625 10.3127H20.4375ZM20.4375 17.8127C20.7188 17.8127 21 17.5784 21 17.2502V15.7502C21 15.469 20.7188 15.1877 20.4375 15.1877H0.5625C0.234375 15.1877 0 15.469 0 15.7502V17.2502C0 17.5784 0.234375 17.8127 0.5625 17.8127H20.4375Z" fill="#CECECE"/>
</svg>
