<svg width="30" height="30" viewBox="0 0 30 30" fill="none" xmlns="http://www.w3.org/2000/svg">
<path d="M24.2126 14.4324C23.8992 9.34242 19.5188 5.4736 14.4324 5.787C9.34607 6.10039 5.47365 10.4807 5.78704 15.5707C6.08963 20.441 10.1278 24.2341 15.0052 24.2305H20.3726C22.4943 24.2269 24.2126 22.5086 24.2162 20.3869V14.4324H24.2126ZM22.678 20.3905C22.678 21.6621 21.6442 22.696 20.3726 22.696H15.0052C12.8114 22.696 10.7221 21.7594 9.25961 20.1276C7.7899 18.4957 7.09466 16.3056 7.35763 14.1226C7.77549 10.6212 10.5132 7.85109 14.011 7.39C14.3424 7.34677 14.6774 7.32876 15.0088 7.32876C16.7991 7.32516 18.5354 7.94835 19.9115 9.09747C21.5361 10.4483 22.5339 12.4043 22.678 14.508V20.3905Z" fill="#828282"/>
<path d="M11.9182 12.7034H14.9909C15.4159 12.7034 15.7582 12.3575 15.7582 11.9361C15.7582 11.511 15.4123 11.1688 14.9909 11.1688H11.9182C11.4931 11.1688 11.1509 11.5146 11.1509 11.9361C11.1509 12.3611 11.4931 12.7034 11.9182 12.7034Z" fill="#828282"/>
<path d="M18.0672 14.2415H11.9182C11.4931 14.2415 11.1509 14.5873 11.1509 15.0088C11.1509 15.4338 11.4967 15.776 11.9182 15.776H18.0672C18.4923 15.776 18.8345 15.4302 18.8345 15.0088C18.8345 14.5837 18.4887 14.2415 18.0672 14.2415Z" fill="#828282"/>
<path d="M18.0672 17.3142H11.9182C11.4931 17.3142 11.1509 17.6601 11.1509 18.0815C11.1509 18.5066 11.4967 18.8488 11.9182 18.8488H18.0672C18.4923 18.8488 18.8345 18.503 18.8345 18.0815C18.8345 17.6601 18.4887 17.3142 18.0672 17.3142Z" fill="#828282"/>
</svg>
