<svg width="20" height="20" viewBox="0 0 20 20" fill="none" xmlns="http://www.w3.org/2000/svg">
<path d="M18.3693 9.59542C17.7493 4.81962 13.3721 1.45066 8.59625 2.07404C4.24624 2.6395 0.9931 6.34569 0.999913 10.7332C0.9931 13.1313 1.98096 15.4238 3.73187 17.0657C4.39272 17.6789 5.26817 18.0127 6.17087 18.0025H13.2699C14.2237 18.0059 15.14 17.6312 15.8213 16.9635C17.7834 15.0491 18.7304 12.3172 18.3693 9.59542ZM14.7994 15.9177C14.3906 16.3197 13.8387 16.5445 13.2665 16.5445H6.16747C5.63606 16.5547 5.12169 16.364 4.72655 16.0063C3.2686 14.6403 2.44424 12.7293 2.45105 10.7298C2.45105 8.66206 3.33332 6.68974 4.87643 5.31014C6.20153 4.11449 7.92518 3.45705 9.70675 3.46045C9.99289 3.46045 10.2756 3.47748 10.5584 3.50814C14.5439 3.97142 17.3985 7.57541 16.9352 11.5609C16.7444 13.2165 15.9882 14.7528 14.796 15.9177H14.7994ZM6.67502 13.8466C6.96116 14.126 6.96798 14.5892 6.68524 14.8754C6.40592 15.1615 5.94264 15.1683 5.6565 14.8856C3.36397 12.6374 3.3231 8.95842 5.57134 6.6659C6.66481 5.552 8.16023 4.92181 9.72037 4.92181C9.9997 4.92181 10.2756 4.94225 10.5515 4.97972C10.9501 5.03763 11.226 5.40552 11.1681 5.80407C11.117 6.19922 10.7559 6.47514 10.3608 6.42404C10.354 6.42404 10.3506 6.42404 10.3437 6.42064C7.95925 6.07999 5.75188 7.73551 5.41124 10.12C5.21367 11.4894 5.68375 12.8758 6.67502 13.8466ZM15.4738 9.902C15.5147 10.1779 15.5317 10.4538 15.5317 10.7332C15.5351 12.2967 14.905 13.799 13.7808 14.8856C13.4947 15.1649 13.0314 15.1615 12.7521 14.8754C12.4728 14.5892 12.4762 14.126 12.7623 13.8466C13.757 12.8758 14.2305 11.486 14.0295 10.1098C13.9716 9.71124 14.2475 9.34335 14.6461 9.28544C15.048 9.22753 15.4159 9.50345 15.4738 9.902ZM11.1204 10.3619C11.3384 11.1488 10.8786 11.9629 10.0917 12.1809C9.30479 12.3989 8.49065 11.939 8.27264 11.1522C8.05463 10.3653 8.5145 9.55114 9.30138 9.33313C9.56027 9.26159 9.83279 9.26159 10.0917 9.33313L12.8407 6.58414C13.12 6.2946 13.5799 6.28778 13.8694 6.56711C14.159 6.84644 14.1658 7.30631 13.8864 7.59585C13.8796 7.60266 13.8762 7.60948 13.8694 7.61288L11.1204 10.3619Z" fill="#828282"/>
</svg>
