<svg width="18" height="18" viewBox="0 0 18 18" fill="none" xmlns="http://www.w3.org/2000/svg">
<path d="M8.99868 0C4.03198 0 0 4.0439 0 9.03712C0 13.492 3.21344 17.1965 7.44081 17.9364V12.3306H5.22547V9.71332H7.45665V9.51709C7.45665 8.98939 7.44609 8.467 7.45665 7.9393C7.46721 7.60519 7.48306 7.26576 7.53851 6.9343C7.67845 6.13612 8.04547 5.46258 8.70823 4.97997C9.28913 4.56099 9.95453 4.39393 10.6569 4.37802C11.119 4.36741 11.5758 4.38863 12.0378 4.40719C12.2887 4.4231 12.5395 4.45492 12.7772 4.47879V6.82027H12.5923C12.1435 6.82027 11.6972 6.80966 11.2457 6.82292C10.6305 6.84414 10.1763 7.08014 10.1552 7.8518C10.1394 8.41397 10.1314 9.71067 10.1314 9.71067H12.7032C12.5871 10.607 12.4735 11.4688 12.3626 12.3359H10.1499V18C10.4747 17.9576 10.7942 17.8966 11.111 17.8197C15.0638 16.8704 18 13.2958 18 9.03712C18 4.0439 13.968 0 8.99868 0Z" fill="#1E4FAD"/>
</svg>
