<svg width="18" height="18" viewBox="0 0 18 18" fill="none" xmlns="http://www.w3.org/2000/svg">
<path d="M18 8.73934C18 8.04017 17.9379 7.5299 17.8028 7H9V10.1573H14.166C14.0633 10.9423 13.4986 12.1248 12.2504 12.9197L12.2342 13.0251L15.0171 14.9828L15.2089 15C16.9787 13.5158 18 11.33 18 8.73934Z" fill="#4285F4"/>
<path d="M9.0404 18C11.4715 18 13.5107 17.2253 15 15.8872L12.1616 13.7542C11.4014 14.2673 10.3818 14.627 9.0404 14.627C6.66123 14.627 4.6401 13.1053 3.91883 11L3.81245 11.0101L1.03632 13.0952L1 13.1908C2.47887 16.0431 5.51964 18 9.0404 18Z" fill="#34A853"/>
<path d="M4 10.7745C3.80481 10.2226 3.68984 9.63239 3.68984 9.02172C3.68984 8.41105 3.80214 7.82082 3.9893 7.26892L3.98396 7.15139L1.08556 5L0.989305 5.04344C0.360963 6.24433 0 7.59342 0 9.02172C0 10.45 0.360963 11.7991 0.989305 13L4 10.7745Z" fill="#FBBC05"/>
<path d="M9.00627 3.37298C10.6881 3.37298 11.8249 4.07977 12.4708 4.67337L15 2.26877C13.4473 0.862738 11.427 0 9.00627 0C5.50046 0 2.4726 1.9594 1 4.8092L3.89869 7C4.62465 4.89723 6.6372 3.37298 9.00627 3.37298Z" fill="#EB4335"/>
</svg>
