<svg width="30" height="30" viewBox="0 0 30 30" fill="none" xmlns="http://www.w3.org/2000/svg">
<path d="M11.1527 5.76923H8.84501C7.14669 5.76923 5.76929 7.14663 5.76929 8.84495V11.1526C5.76929 12.851 7.14669 14.2284 8.84501 14.2284H11.1527C12.851 14.2284 14.2284 12.851 14.2284 11.1526V8.84495C14.232 7.14663 12.8546 5.76923 11.1527 5.76923ZM12.6924 11.1526C12.6924 12.0036 12.0037 12.6923 11.1527 12.6923H8.84501C7.99405 12.6923 7.30534 12.0036 7.30534 11.1526V8.84495C7.30534 7.99399 7.99405 7.30528 8.84501 7.30528H11.1527C12.0037 7.30528 12.6924 7.99399 12.6924 8.84495V11.1526Z" fill="#828282"/>
<path d="M21.1554 5.76923H18.8477C17.1494 5.76923 15.772 7.14663 15.772 8.84495V11.1526C15.772 12.851 17.1494 14.2284 18.8477 14.2284H21.1554C22.8537 14.2284 24.2311 12.851 24.2311 11.1526V8.84495C24.2311 7.14663 22.8537 5.76923 21.1554 5.76923ZM22.6914 11.1526C22.6914 12.0036 22.0027 12.6923 21.1518 12.6923H18.8441C17.9931 12.6923 17.3044 12.0036 17.3044 11.1526V8.84495C17.3044 7.99399 17.9931 7.30528 18.8441 7.30528H21.1518C22.0027 7.30528 22.6914 7.99399 22.6914 8.84495V11.1526Z" fill="#828282"/>
<path d="M11.1527 15.768H8.84501C7.14669 15.768 5.76929 17.1454 5.76929 18.8473V21.155C5.76929 22.8533 7.14669 24.2307 8.84501 24.2307H11.1527C12.851 24.2307 14.2284 22.8533 14.2284 21.155V18.8473C14.232 17.1454 12.8546 15.768 11.1527 15.768ZM12.6924 21.155C12.6924 22.006 12.0037 22.6947 11.1527 22.6947H8.84501C7.99405 22.6947 7.30534 22.006 7.30534 21.155V18.8473C7.30534 17.9964 7.99405 17.3077 8.84501 17.3077H11.1527C12.0037 17.3077 12.6924 17.9964 12.6924 18.8473V21.155Z" fill="#828282"/>
<path d="M21.1554 15.768H18.8477C17.1494 15.768 15.772 17.1454 15.772 18.8437V21.1514C15.772 22.8497 17.1494 24.2271 18.8477 24.2271H21.1554C22.8537 24.2271 24.2311 22.8497 24.2311 21.1514V18.8437C24.2311 17.1454 22.8537 15.768 21.1554 15.768ZM22.6914 21.155C22.6914 22.006 22.0027 22.6947 21.1518 22.6947H18.8441C17.9931 22.6947 17.3044 22.006 17.3044 21.155V18.8473C17.3044 17.9964 17.9931 17.3077 18.8441 17.3077H21.1518C22.0027 17.3077 22.6914 17.9964 22.6914 18.8473V21.155Z" fill="#828282"/>
</svg>
