<svg width="30" height="30" viewBox="0 0 30 30" fill="none" xmlns="http://www.w3.org/2000/svg">
<path d="M22.9447 15.4551V14.2889C22.9447 10.2223 19.6454 6.92307 15.5789 6.92307C11.5124 6.92307 8.21309 10.2223 8.21309 14.2889V15.4551C6.14529 16.3644 5.20538 18.7813 6.11843 20.8491C6.77062 22.3299 8.23227 23.289 9.85121 23.2928C10.7566 23.2928 11.4893 22.5601 11.4893 21.6547V16.7442C11.4893 15.8388 10.7566 15.106 9.85121 15.106V14.2889C9.85121 11.1239 12.4177 8.56119 15.5789 8.56119C18.7401 8.56119 21.3066 11.1239 21.3066 14.2889V15.106C20.4012 15.106 19.6685 15.8388 19.6685 16.7442V21.6547H17.2132C16.7605 21.6547 16.396 22.023 16.396 22.4718C16.396 22.9207 16.7643 23.289 17.2132 23.289H21.3066C23.5662 23.2813 25.3923 21.4437 25.3846 19.1841C25.3846 17.569 24.4256 16.1073 22.9447 15.4551ZM9.85121 21.6547C8.49698 21.6547 7.39594 20.5537 7.39594 19.1994C7.39594 17.8452 8.49698 16.7442 9.85121 16.7442V21.6547ZM21.3066 21.6547V16.7442C22.6608 16.7442 23.7619 17.8452 23.7619 19.1994C23.7619 20.5537 22.6647 21.6547 21.3066 21.6547Z" fill="#828282"/>
</svg>
