<svg width="125" height="30" viewBox="0 0 125 30" fill="none" xmlns="http://www.w3.org/2000/svg">
<path d="M37.52 21.456H46.2654V18.8219H40.6283V8.8999H37.52V21.456Z" fill="#2F234F"/>
<path d="M51.4467 19.6998C50.1999 19.6998 49.5501 18.6111 49.5501 16.9779C49.5501 15.3447 50.1999 14.2384 51.4467 14.2384C52.6936 14.2384 53.3609 15.3447 53.3609 16.9779C53.3609 18.6111 52.6936 19.6998 51.4467 19.6998ZM51.4643 21.7369C54.3619 21.7369 56.2584 19.6823 56.2584 16.9779C56.2584 14.2735 54.3619 12.2189 51.4643 12.2189C48.5843 12.2189 46.6526 14.2735 46.6526 16.9779C46.6526 19.6823 48.5843 21.7369 51.4643 21.7369Z" fill="#2F234F"/>
<path d="M61.2738 24.5643C62.6085 24.5643 63.7851 24.2658 64.5753 23.5634C65.2953 22.9136 65.7695 21.9302 65.7695 20.578V12.4648H63.0299V13.4307H62.9948C62.468 12.6756 61.6602 12.2014 60.466 12.2014C58.2358 12.2014 56.6904 14.0629 56.6904 16.697C56.6904 19.4541 58.5695 20.9643 60.589 20.9643C61.6777 20.9643 62.3626 20.5253 62.8895 19.9282H62.9597V20.8239C62.9597 21.9126 62.4504 22.5448 61.2387 22.5448C60.2904 22.5448 59.8163 22.1409 59.6582 21.6668H56.8836C57.1646 23.5458 58.7977 24.5643 61.2738 24.5643ZM61.2563 18.8395C60.1851 18.8395 59.4826 17.9614 59.4826 16.6092C59.4826 15.2395 60.1851 14.3614 61.2563 14.3614C62.4504 14.3614 63.0826 15.38 63.0826 16.5917C63.0826 17.8561 62.5031 18.8395 61.2563 18.8395Z" fill="#2F234F"/>
<path d="M71.4025 19.6998C70.1557 19.6998 69.506 18.6111 69.506 16.9779C69.506 15.3447 70.1557 14.2384 71.4025 14.2384C72.6494 14.2384 73.3164 15.3447 73.3164 16.9779C73.3164 18.6111 72.6494 19.6998 71.4025 19.6998ZM71.4201 21.7369C74.3174 21.7369 76.214 19.6823 76.214 16.9779C76.214 14.2735 74.3174 12.2189 71.4201 12.2189C68.5401 12.2189 66.6084 14.2735 66.6084 16.9779C66.6084 19.6823 68.5401 21.7369 71.4201 21.7369Z" fill="#2F234F"/>
<path d="M77.0503 21.456H79.9127V12.4648H77.0503V21.456ZM77.0503 11.218H79.9127V8.8999H77.0503V11.218Z" fill="#2F234F"/>
<path d="M81.1543 24.4239H84.0167V20.5253H84.0519C84.6138 21.2804 85.4392 21.737 86.5982 21.737C88.9514 21.737 90.5143 19.8756 90.5143 16.9604C90.5143 14.256 89.0567 12.2014 86.6684 12.2014C85.4392 12.2014 84.5611 12.7458 83.9465 13.5536H83.8938V12.4648H81.1543V24.4239ZM85.8606 19.5243C84.6314 19.5243 83.9289 18.5234 83.9289 17.0658C83.9289 15.6082 84.5611 14.5019 85.808 14.5019C87.0372 14.5019 87.6167 15.5204 87.6167 17.0658C87.6167 18.5936 86.9494 19.5243 85.8606 19.5243Z" fill="#2F234F"/>
<path d="M95.1747 21.737C97.5279 21.737 99.2664 20.7185 99.2664 18.7517C99.2664 16.4512 97.4049 16.0473 95.8244 15.7839C94.683 15.5731 93.6644 15.4853 93.6644 14.8531C93.6644 14.2912 94.2088 14.0278 94.9113 14.0278C95.7015 14.0278 96.2459 14.2736 96.3513 15.0814H98.9854C98.8449 13.3078 97.4752 12.2014 94.9288 12.2014C92.8039 12.2014 91.0479 13.1848 91.0479 15.0814C91.0479 17.1887 92.7162 17.6102 94.2791 17.8736C95.4732 18.0843 96.562 18.1721 96.562 18.98C96.562 19.5595 96.0176 19.8756 95.1571 19.8756C94.2088 19.8756 93.6118 19.4365 93.5064 18.5409H90.802C90.8898 20.5253 92.5405 21.737 95.1747 21.737Z" fill="#2F234F"/>
<path d="M103.155 21.7194C104.401 21.7194 105.192 21.2276 105.841 20.3496H105.894V21.4559H108.634V12.4647H105.771V17.4872C105.771 18.5584 105.174 19.2959 104.191 19.2959C103.278 19.2959 102.839 18.7516 102.839 17.7681V12.4647H99.9937V18.3652C99.9937 20.3672 101.082 21.7194 103.155 21.7194Z" fill="#2F234F"/>
<path d="M109.879 21.4561H112.741V16.4161C112.741 15.3448 113.268 14.5897 114.164 14.5897C115.024 14.5897 115.428 15.1517 115.428 16.1175V21.4561H118.291V16.4161C118.291 15.3448 118.8 14.5897 119.713 14.5897C120.574 14.5897 120.977 15.1517 120.977 16.1175V21.4561H123.84V15.6082C123.84 13.5887 122.821 12.2014 120.784 12.2014C119.625 12.2014 118.659 12.6931 117.957 13.7819H117.922C117.465 12.8161 116.57 12.2014 115.393 12.2014C114.094 12.2014 113.233 12.8161 112.671 13.7468H112.618V12.4648H109.879V21.4561Z" fill="#2F234F"/>
<path fill-rule="evenodd" clip-rule="evenodd" d="M14.7083 29.5048C22.7906 29.5048 29.3425 22.9529 29.3425 14.8707C29.3425 6.7885 22.7906 0.236572 14.7083 0.236572C6.62614 0.236572 0.0742188 6.7885 0.0742188 14.8707C0.0742188 22.9529 6.62614 29.5048 14.7083 29.5048ZM16.9671 11.5433C18.2145 10.2958 18.2145 8.27332 16.9671 7.02583C15.7196 5.77836 13.6971 5.77836 12.4496 7.02583C11.2022 8.27332 11.2022 10.2958 12.4496 11.5433L14.7083 13.802L16.9671 11.5433ZM18.0358 17.1295C19.2833 18.377 21.3058 18.377 22.5533 17.1295C23.8007 15.882 23.8007 13.8595 22.5533 12.612C21.3058 11.3646 19.2833 11.3646 18.0358 12.612L15.7771 14.8708L18.0358 17.1295ZM16.9671 22.7156C18.2145 21.4681 18.2145 19.4456 16.9671 18.1981L14.7083 15.9394L12.4496 18.1981C11.2022 19.4456 11.2022 21.4681 12.4496 22.7156C13.6971 23.9631 15.7196 23.9631 16.9671 22.7156ZM6.86346 17.1295C5.61602 15.882 5.61602 13.8595 6.86346 12.612C8.11097 11.3646 10.1335 11.3646 11.381 12.612L13.6397 14.8708L11.381 17.1295C10.1335 18.377 8.11097 18.377 6.86346 17.1295Z" fill="#5B86E5"/>
</svg>
