<svg width="11" height="11" viewBox="0 0 11 11" fill="none" xmlns="http://www.w3.org/2000/svg">
<path d="M10.7812 5.09375H6.40625V0.71875C6.40625 0.609375 6.29688 0.5 6.1875 0.5H5.3125C5.17578 0.5 5.09375 0.609375 5.09375 0.71875V5.09375H0.71875C0.582031 5.09375 0.5 5.20312 0.5 5.3125V6.1875C0.5 6.32422 0.582031 6.40625 0.71875 6.40625H5.09375V10.7812C5.09375 10.918 5.17578 11 5.3125 11H6.1875C6.29688 11 6.40625 10.918 6.40625 10.7812V6.40625H10.7812C10.8906 6.40625 11 6.32422 11 6.1875V5.3125C11 5.20312 10.8906 5.09375 10.7812 5.09375Z" fill="white"/>
</svg>
