<svg width="20" height="20" viewBox="0 0 20 20" fill="none" xmlns="http://www.w3.org/2000/svg">
<path d="M9.64668 6.66772C8.08281 6.66772 6.81445 7.93609 6.81445 9.49996C6.81445 11.0638 8.08281 12.3322 9.64668 12.3322C11.2105 12.3322 12.4789 11.0638 12.4789 9.49996C12.4789 7.93609 11.2139 6.66772 9.64668 6.66772ZM9.64668 10.9177C8.86309 10.9177 8.22891 10.2836 8.22891 9.49996C8.22891 8.71636 8.86309 8.08218 9.64668 8.08218C10.4303 8.08218 11.0645 8.71636 11.0645 9.49996C11.0645 10.2836 10.4303 10.9177 9.64668 10.9177Z" fill="#828282"/>
<path d="M16.2309 10.8447L15.9155 10.6621C16.0582 9.8918 16.0582 9.10156 15.9155 8.33125L16.2309 8.14863C17.2469 7.56094 17.5955 6.2627 17.0112 5.24336C16.4235 4.22734 15.1252 3.87871 14.1059 4.46309L13.7905 4.6457C13.1961 4.1377 12.5121 3.74258 11.7717 3.48359V3.125C11.7717 1.95293 10.8188 1 9.64672 1C8.47465 1 7.52172 1.95293 7.52172 3.125V3.48691C6.78461 3.74922 6.10063 4.14434 5.50297 4.65234L5.18754 4.46973C4.17152 3.88535 2.87328 4.23398 2.28559 5.25C1.69789 6.26602 2.04652 7.56758 3.06254 8.15527L3.37797 8.33789C3.2352 9.1082 3.2352 9.89844 3.37797 10.6688L3.06254 10.8514C2.04652 11.4324 1.69789 12.734 2.28559 13.75C2.87328 14.766 4.17152 15.1146 5.19086 14.5303L5.50629 14.3477C6.10063 14.8557 6.78461 15.2508 7.52504 15.5098V15.875C7.52504 17.0471 8.47797 18 9.65004 18C10.8221 18 11.775 17.0471 11.775 15.875V15.5131C12.5121 15.2508 13.1961 14.8557 13.7938 14.3477L14.1092 14.5303C15.1252 15.118 16.4268 14.7693 17.0145 13.75C17.5989 12.7307 17.2502 11.4324 16.2309 10.8447ZM14.428 8.17188C14.667 9.0418 14.667 9.9582 14.428 10.8281C14.3416 11.1402 14.4778 11.4689 14.7567 11.6316L15.5237 12.0766C15.8623 12.2725 15.9786 12.7041 15.7827 13.0461C15.5868 13.3848 15.1551 13.501 14.8131 13.3051L14.0428 12.8602C13.7639 12.6975 13.4086 12.7473 13.1829 12.9764C12.552 13.6205 11.7584 14.0787 10.8852 14.3045C10.5731 14.3842 10.3539 14.6664 10.3539 14.9918V15.875C10.3539 16.2668 10.0352 16.5822 9.64672 16.5822C9.25492 16.5822 8.93949 16.2635 8.93949 15.875V14.9885C8.93949 14.6664 8.72035 14.3842 8.40824 14.3012C7.535 14.0754 6.74145 13.6139 6.11059 12.9697C5.88481 12.7373 5.52953 12.6908 5.25063 12.8535L4.48363 13.2984C4.14496 13.4977 3.71332 13.3814 3.5141 13.0461C3.31488 12.7074 3.43109 12.2758 3.76645 12.0766C3.76977 12.0766 3.77309 12.0732 3.77309 12.0732L4.54008 11.6283C4.81898 11.4656 4.95512 11.1369 4.86879 10.8248C4.62973 9.95488 4.62973 9.03848 4.86879 8.16855C4.9518 7.85977 4.81898 7.53105 4.54008 7.36836L3.77309 6.92344C3.43441 6.72754 3.3182 6.2959 3.5141 5.95391C3.71 5.61191 4.14164 5.49902 4.48363 5.69492L5.25395 6.13984C5.53285 6.30254 5.88813 6.25605 6.11391 6.02695C6.74477 5.38281 7.53832 4.92461 8.41156 4.69883C8.72699 4.61914 8.94613 4.33359 8.94281 4.0082V3.125C8.94281 2.7332 9.26156 2.41777 9.65004 2.41777C10.0385 2.41777 10.3573 2.73652 10.3573 3.125V4.01152C10.3573 4.33359 10.5764 4.61582 10.8885 4.69883C11.7618 4.92461 12.5553 5.38613 13.1862 6.03027C13.412 6.2627 13.7672 6.30918 14.0461 6.14648L14.8131 5.70156C15.1518 5.50234 15.5834 5.61855 15.7827 5.95391C15.9819 6.29258 15.8657 6.72422 15.5303 6.92344C15.527 6.92344 15.5237 6.92676 15.5237 6.92676L14.7567 7.37168C14.4778 7.53437 14.3416 7.86309 14.428 8.17188Z" fill="#828282"/>
</svg>
