<svg width="16" height="19" viewBox="0 0 16 19" fill="none" xmlns="http://www.w3.org/2000/svg">
<path d="M13.4535 2.92268C13.4535 2.80597 13.3888 2.76707 13.2918 2.76707C13.2271 2.76707 12.0952 2.72816 12.0952 2.72816C12.0952 2.72816 11.416 1.91122 11.1573 1.6V18.4446L15.2 17.1998C15.2 17.1998 13.4535 3.00048 13.4535 2.92268ZM10.2194 1.6C10.187 1.40549 10.0576 1.09428 9.99297 0.899765C9.66955 0.121723 9.15208 -0.3062 8.56993 -0.3062C8.53759 -0.3062 8.53759 -0.3062 8.53759 -0.3062C8.50525 -0.3062 8.44056 -0.267298 8.44056 -0.267298C8.40822 -0.3062 8.37588 -0.3062 8.37588 -0.345103C8.11715 -0.695222 7.79373 -0.85083 7.37329 -0.85083C6.59709 -0.811928 5.82088 -0.150592 5.20639 1.05537C4.75361 1.91122 4.43019 2.96158 4.33316 3.77852C3.4276 4.12864 2.8131 4.36205 2.8131 4.36205C2.36032 4.55656 2.32798 4.55656 2.29564 5.06229C2.26329 5.45131 1.06665 16.4217 1.06665 16.4217L10.8339 18.4446V1.40549C10.8015 1.40549 10.7368 1.40549 10.7045 1.44439C10.6721 1.44439 10.5104 1.4833 10.2194 1.6ZM8.44056 2.26134C7.9231 2.45585 7.34094 2.68926 6.79114 2.88377C6.95284 2.14463 7.24392 1.40549 7.63202 0.938667C7.76139 0.744157 7.95544 0.549646 8.18183 0.43294C8.40822 0.977569 8.44056 1.75561 8.44056 2.26134ZM7.37329 -0.189494H7.40563C7.535 -0.189494 7.72905 -0.11169 7.85841 -0.0727878C7.63202 0.0828207 7.43797 0.277331 7.24392 0.510744C6.72645 1.13318 6.37069 2.14463 6.20898 3.07828C5.7562 3.27279 5.27107 3.4284 4.85063 3.58401C5.14171 2.10573 6.17664 -0.150592 7.37329 -0.189494ZM5.88557 8.36897C5.91791 9.38043 8.11715 9.57494 8.24651 11.948C8.34354 13.7764 7.43797 15.0601 6.11196 15.1379C4.52721 15.2546 3.68633 14.1654 3.68633 14.1654L4.00975 12.4537C4.00975 12.4537 4.88297 13.2317 5.56215 13.1539C6.01493 13.1539 6.20898 12.6871 6.17664 12.3759C6.11196 11.0532 4.33316 11.131 4.2038 8.99141C4.10677 7.20191 5.10937 5.37351 7.27626 5.179C8.11715 5.1401 8.53759 5.37351 8.53759 5.37351L8.05246 7.62983C8.05246 7.62983 7.50265 7.31861 6.82348 7.35752C5.88557 7.43532 5.85323 8.17446 5.88557 8.36897ZM8.95803 2.06683C8.95803 1.6 8.89335 0.938667 8.73164 0.394038C9.31379 0.510744 9.60487 1.32769 9.73423 1.79451C9.50784 1.87232 9.24911 1.98902 8.95803 2.06683Z" fill="#95BF47"/>
</svg>
