<svg width="36" height="36" viewBox="0 0 36 36" fill="none" xmlns="http://www.w3.org/2000/svg">
<path d="M12.256 23.14C11.752 23.14 11.2713 23.0793 10.814 22.958C10.366 22.8273 9.96467 22.6313 9.61 22.37C9.25533 22.1087 8.97067 21.7867 8.756 21.404C8.55067 21.0213 8.44333 20.5687 8.434 20.046C8.434 19.962 8.462 19.892 8.518 19.836C8.574 19.7707 8.644 19.738 8.728 19.738H10.058C10.1793 19.738 10.268 19.7707 10.324 19.836C10.3893 19.9013 10.4407 19.99 10.478 20.102C10.5247 20.438 10.632 20.7133 10.8 20.928C10.968 21.1333 11.178 21.2873 11.43 21.39C11.6913 21.4833 11.9807 21.53 12.298 21.53C12.886 21.53 13.334 21.3387 13.642 20.956C13.9593 20.5733 14.118 20.0413 14.118 19.36V14.852H9.372C9.26933 14.852 9.18533 14.8193 9.12 14.754C9.064 14.6887 9.036 14.6093 9.036 14.516V13.536C9.036 13.4427 9.064 13.3633 9.12 13.298C9.18533 13.2327 9.26933 13.2 9.372 13.2H15.77C15.8727 13.2 15.9567 13.2327 16.022 13.298C16.0873 13.3633 16.12 13.4473 16.12 13.55V19.416C16.12 20.1907 15.9567 20.858 15.63 21.418C15.3127 21.978 14.8647 22.4073 14.286 22.706C13.7167 22.9953 13.04 23.14 12.256 23.14ZM19.0508 23C18.9575 23 18.8781 22.972 18.8128 22.916C18.7475 22.8507 18.7148 22.7667 18.7148 22.664V13.55C18.7148 13.4473 18.7475 13.3633 18.8128 13.298C18.8781 13.2327 18.9575 13.2 19.0508 13.2H20.3248C20.4275 13.2 20.5068 13.2327 20.5628 13.298C20.6281 13.3633 20.6608 13.4473 20.6608 13.55V17.162H24.7908V13.55C24.7908 13.4473 24.8235 13.3633 24.8888 13.298C24.9541 13.2327 25.0335 13.2 25.1268 13.2H26.3868C26.4895 13.2 26.5735 13.2327 26.6388 13.298C26.7041 13.3633 26.7368 13.4473 26.7368 13.55V22.664C26.7368 22.7573 26.7041 22.8367 26.6388 22.902C26.5735 22.9673 26.4895 23 26.3868 23H25.1268C25.0335 23 24.9541 22.9673 24.8888 22.902C24.8235 22.8367 24.7908 22.7573 24.7908 22.664V18.912H20.6608V22.664C20.6608 22.7573 20.6281 22.8367 20.5628 22.902C20.5068 22.9673 20.4275 23 20.3248 23H19.0508Z" fill="#5B86E5"/>
<circle cx="18" cy="18" r="16" fill="#95BF47"/>
<circle cx="18" cy="18" r="15.5" stroke="white" stroke-opacity="0.8"/>
<path d="M23.4538 13.129C23.4538 13.0323 23.3891 13 23.2921 13C23.2274 13 22.0954 12.9677 22.0954 12.9677C22.0954 12.9677 21.4162 12.2903 21.1575 12.0323V26L25.2002 24.9677C25.2002 24.9677 23.4538 13.1935 23.4538 13.129ZM20.2196 12.0323C20.1873 11.871 20.0579 11.6129 19.9932 11.4516C19.6698 10.8065 19.1523 10.4516 18.5702 10.4516C18.5378 10.4516 18.5378 10.4516 18.5378 10.4516C18.5055 10.4516 18.4408 10.4839 18.4408 10.4839C18.4085 10.4516 18.3761 10.4516 18.3761 10.4194C18.1174 10.129 17.794 10 17.3735 10C16.5973 10.0323 15.8211 10.5806 15.2066 11.5806C14.7539 12.2903 14.4304 13.1613 14.3334 13.8387C13.4278 14.129 12.8133 14.3226 12.8133 14.3226C12.3606 14.4839 12.3282 14.4839 12.2959 14.9032C12.2635 15.2258 11.0669 24.3226 11.0669 24.3226L20.8341 26V11.871C20.8018 11.871 20.7371 11.871 20.7047 11.9032C20.6724 11.9032 20.5107 11.9355 20.2196 12.0323ZM18.4408 12.5806C17.9233 12.7419 17.3412 12.9355 16.7914 13.0968C16.9531 12.4839 17.2442 11.871 17.6323 11.4839C17.7616 11.3226 17.9557 11.1613 18.1821 11.0645C18.4085 11.5161 18.4408 12.1613 18.4408 12.5806ZM17.3735 10.5484H17.4059C17.5352 10.5484 17.7293 10.6129 17.8587 10.6452C17.6323 10.7742 17.4382 10.9355 17.2442 11.129C16.7267 11.6452 16.3709 12.4839 16.2092 13.2581C15.7564 13.4194 15.2713 13.5484 14.8509 13.6774C15.142 12.4516 16.1769 10.5806 17.3735 10.5484ZM15.8858 17.6452C15.9182 18.4839 18.1174 18.6452 18.2468 20.6129C18.3438 22.129 17.4382 23.1935 16.1122 23.2581C14.5275 23.3548 13.6866 22.4516 13.6866 22.4516L14.01 21.0323C14.01 21.0323 14.8832 21.6774 15.5624 21.6129C16.0152 21.6129 16.2092 21.2258 16.1769 20.9677C16.1122 19.871 14.3334 19.9355 14.204 18.1613C14.107 16.6774 15.1096 15.1613 17.2765 15C18.1174 14.9677 18.5378 15.1613 18.5378 15.1613L18.0527 17.0323C18.0527 17.0323 17.5029 16.7742 16.8237 16.8065C15.8858 16.871 15.8535 17.4839 15.8858 17.6452ZM18.9583 12.4194C18.9583 12.0323 18.8936 11.4839 18.7319 11.0323C19.314 11.129 19.6051 11.8065 19.7345 12.1935C19.5081 12.2581 19.2494 12.3548 18.9583 12.4194Z" fill="white"/>
</svg>
