<svg width="13" height="11" viewBox="0 0 13 11" fill="none" xmlns="http://www.w3.org/2000/svg">
<path d="M3.50781 0.367188C3.4375 0.320312 3.32031 0.273438 3.25 0.273438C3.15625 0.273438 3.03906 0.320312 2.96875 0.367188L1.09375 2.61719C0.859375 2.85156 1.02344 3.25 1.375 3.25H2.5V10.375C2.5 10.5859 2.66406 10.75 2.875 10.75H3.625C3.8125 10.75 4 10.5859 4 10.375V3.25H5.125C5.45312 3.25 5.61719 2.85156 5.38281 2.61719L3.50781 0.367188ZM12.3438 0.25H7.65625C7.28125 0.25 7 0.554688 7 0.90625V4.84375C7 5.21875 7.28125 5.5 7.65625 5.5H12.3438C12.6953 5.5 13 5.21875 13 4.84375V0.90625C13 0.554688 12.6953 0.25 12.3438 0.25ZM11.0312 7H7.46875C7.1875 7 7 7.21094 7 7.46875V10.2812C7 10.5625 7.1875 10.75 7.46875 10.75H11.0312C11.2891 10.75 11.5 10.5625 11.5 10.2812V7.46875C11.5 7.21094 11.2891 7 11.0312 7Z" fill="#4F4F4F"/>
</svg>
