<svg width="20" height="20" viewBox="0 0 20 20" fill="none" xmlns="http://www.w3.org/2000/svg">
<path d="M14.6656 2H5.33437C3.49375 2.00313 2.00313 3.49375 2 5.33437V14.6687C2.00313 16.5062 3.49375 17.9969 5.33437 18H14.6687C16.5094 17.9969 18 16.5062 18.0031 14.6656V5.33437C17.9969 3.49375 16.5062 2.00313 14.6656 2ZM16.6656 5.33437H12V3.33438H14.6656C15.7719 3.33438 16.6656 4.22812 16.6656 5.33437ZM9.33437 3.33438H10.6687V6.66875C10.6687 7.0375 10.3688 7.33437 10.0031 7.33437C9.63438 7.33437 9.3375 7.03437 9.3375 6.66875V3.33438H9.33437ZM5.33437 3.33438H8V5.33437H3.33438C3.33438 4.22812 4.22812 3.33438 5.33437 3.33438ZM14.6656 16.6656H5.33437C4.23125 16.6656 3.33438 15.7687 3.33438 14.6656V6.66563H8C8 7.76875 8.89688 8.66563 10 8.66563C11.1031 8.66563 12 7.76875 12 6.66563H16.6656V14.6656C16.6656 15.7719 15.7719 16.6656 14.6656 16.6656ZM15.3344 14.6656C15.3344 15.0344 15.0344 15.3313 14.6687 15.3313H12.6687C12.3 15.3313 12.0031 15.0312 12.0031 14.6656C12.0031 14.3 12.3031 14 12.6687 14H14.6687C15.0344 14 15.3344 14.3 15.3344 14.6656Z" fill="#828282"/>
</svg>
