<svg width="13" height="15" viewBox="0 0 13 15" fill="none" xmlns="http://www.w3.org/2000/svg">
<path d="M6.125 7.75C8.03906 7.75 9.625 6.19141 9.625 4.25C9.625 2.33594 8.03906 0.75 6.125 0.75C4.18359 0.75 2.625 2.33594 2.625 4.25C2.625 6.19141 4.18359 7.75 6.125 7.75ZM8.55859 8.625H8.09375C7.49219 8.92578 6.83594 9.0625 6.125 9.0625C5.41406 9.0625 4.73047 8.92578 4.12891 8.625H3.66406C1.64062 8.625 0 10.293 0 12.3164V13.4375C0 14.1758 0.574219 14.75 1.3125 14.75H10.9375C11.6484 14.75 12.25 14.1758 12.25 13.4375V12.3164C12.25 10.293 10.582 8.625 8.55859 8.625Z" fill="#CECECE"/>
</svg>
